<?xml version="1.0" standalone="no"?>
<!DOCTYPE svg PUBLIC "-//W3C//DTD SVG 1.1//EN" "http://www.w3.org/Graphics/SVG/1.1/DTD/svg11.dtd" >
<svg xmlns="http://www.w3.org/2000/svg" xmlns:xlink="http://www.w3.org/1999/xlink" version="1.1">
<metadata></metadata>
<defs>
<font id="dinosaursonarmedium" horiz-adv-x="20" >
<font-face units-per-em="2048" ascent="1638" descent="-410" />
<missing-glyph horiz-adv-x="860" />
<glyph horiz-adv-x="0" />
<glyph unicode="&#xd;" horiz-adv-x="681" />
<glyph unicode=" "  horiz-adv-x="860" />
<glyph unicode="&#x09;" horiz-adv-x="860" />
<glyph unicode="&#xa0;" horiz-adv-x="860" />
<glyph unicode="!" horiz-adv-x="360" d="M20 -99q-4 47 19 70q14 12 53 15.5t68 -6.5q27 -10 22.5 -49.5t-37.5 -69.5q-29 -29 -46 -33t-50 12q-25 14 -29 61zM59 106l50 189q29 111 62.5 272.5t56 258.5t36.5 120q10 16 29.5 13t36.5 -21l6 -9t4 -7t1 -12.5t-3 -18.5t-6 -28.5t-9.5 -41t-13.5 -59.5t-16 -79 t-19.5 -102.5t-23.5 -127.5q-61 -346 -103 -387q-16 -16 -24 -15.5t-31 23.5z" />
<glyph unicode="#" horiz-adv-x="1085" d="M21 477q4 29 24 37q6 2 205 109.5t199 109.5q0 37 28.5 139.5t40.5 114.5q72 55 68 -65q-2 -41 -13 -105l-12 -63l51 10q78 16 102.5 28.5t41.5 41.5q4 12 9 27.5t8 25.5t7 31q6 31 10.5 44t12.5 28.5t21.5 14.5t29.5 -16q37 -31 4 -176q-4 -18 34 -27.5t83 -13.5 t72.5 -28.5t7.5 -69.5q-14 -31 -47 -36t-67 6t-68.5 14.5t-51.5 -11.5q-16 -16 -31.5 -97t-5.5 -93q6 -6 32 -3t53.5 10t53 7t35 -13.5t-3.5 -51.5q-8 -29 -50 -47.5t-84 -33t-50 -28.5q-8 -20 -19.5 -114.5t-30 -185.5t-44.5 -114q-16 -12 -24.5 -10t-20.5 21 q-23 29 -13 65q6 25 29 166t23 156q-6 4 -38 -0.5t-78 -14.5t-69 -18q-31 -14 -43 -41t-39 -135q-27 -121 -46 -157t-50 -24q-10 4 -14 9.5t-2 15.5t5 23.5t7 39t4 54.5q2 23 6 50.5t6.5 45.5t4.5 36.5t-1.5 29t-11.5 17.5t-25.5 6t-45.5 -11q-45 -14 -62 0q-25 27 13 55.5 t96.5 53t64.5 28.5l39 137q31 133 -14 105l-6 -6q-14 -10 -66.5 -23.5t-81.5 -36.5q-39 -33 -106.5 -61.5t-81.5 -20.5q-18 10 -14 39zM479 379q12 -8 94 10.5t95 32.5q12 14 28.5 116.5t8.5 114.5t-19 11q-135 -20 -151 -39q-12 -12 -38 -127t-18 -119z" />
<glyph unicode="$" horiz-adv-x="849" d="M23.5 236.5q-9.5 31.5 17.5 70.5q23 27 43 12q106 -76 190 -118.5t99 -26.5q8 8 14 176l4 166l-80 53q-80 53 -98 88q-27 49 5 116t84 121t98 103.5t46 65.5q0 23 31 70q31 51 58.5 49t31.5 -56q4 -39 14.5 -48t57.5 -19q80 -14 120 -53t54 -113q18 -90 15 -129t-29 -62 q-35 -33 -58.5 -9t-35.5 106q-12 76 -37 104.5t-76 28.5q-41 0 -54.5 -33t-19.5 -143q-2 -86 1 -106.5t24 -26.5q59 -16 118.5 -69.5t104.5 -129.5q25 -41 18.5 -118t-39.5 -142q-78 -152 -206 -144q-45 2 -58.5 -4t-25.5 -36q-33 -76 -76 -89q-29 -8 -31 31q-2 18 6 45 q14 45 10 62.5t-26 17.5q-25 0 -115 43t-139 78q-51 37 -60.5 68.5zM330 729q0 -18 31.5 -41.5t41.5 -13.5q12 14 16.5 100t-3.5 92q-6 4 -26.5 -24.5t-40 -64.5t-19.5 -48zM485 150q12 -18 60.5 -5t81.5 45q51 49 37 125.5t-84 135.5q-57 47 -72 30q-14 -16 -23 -155 q-8 -162 0 -176z" />
<glyph unicode="%" horiz-adv-x="1062" d="M19.5 473q7.5 74 48.5 133q34 53 34 92q0 43 39 66.5t92.5 18.5t92.5 -40q31 -29 39 -52t14 -93q4 -61 -1 -95t-24 -79q-63 -141 -157 -141q-96 0 -140.5 58t-37 132zM133 502q-4 -51 27 -76q27 -27 45 -24t41 36q29 47 24 148q-2 86 -37 80q-25 -6 -61 -60 q-35 -53 -39 -104zM167.5 -11.5q14.5 38.5 80.5 107.5q104 111 230 289t126 217q0 12 8.5 26.5t30 47.5t41.5 76q29 53 42 64t46 9q45 -4 49 -34q4 -27 -39 -113t-80 -125q-31 -35 -18 -45q8 -8 31 10q23 20 41 2q12 -12 -8.5 -45t-56.5 -95.5t-48 -125.5q-10 -51 18.5 -80 t86.5 -29q63 2 124.5 76t53.5 139q-4 27 -25.5 31t-97.5 -6q-29 -4 -37 1t-8 30q0 33 49 61.5t121 36.5q55 8 78.5 -10.5t31.5 -75.5q12 -72 -25.5 -157t-117.5 -158q-61 -57 -86 -68.5t-84 -11.5q-55 0 -76.5 7t-46.5 32q-39 41 -47 90t12 127q27 100 13 100q-4 0 -15 -27 q-10 -29 -113.5 -165t-166.5 -205q-45 -47 -63.5 -58.5t-35.5 -3.5q-33 20 -18.5 58.5z" />
<glyph unicode="&#x26;" />
<glyph unicode="'" horiz-adv-x="266" d="M25 688q-10 49 6 129q14 70 30.5 108.5t61.5 110.5q55 90 106 39q14 -14 16.5 -29.5t-6 -28.5t-23.5 -32.5t-31.5 -40t-34 -54.5t-27.5 -73q-29 -106 -39 -132t-25 -30q-25 -8 -34 33z" />
<glyph unicode="(" horiz-adv-x="716" d="M21.5 30q-1.5 46 9.5 156q20 176 52 284t91 198q66 102 173 237t185 215t106 93.5t50 -19.5q18 -29 0 -68t-65 -71q-31 -20 -50.5 -42t-31 -43.5t-46 -72.5t-87.5 -113q-123 -147 -181.5 -287.5t-70.5 -326.5q-10 -139 23.5 -281.5t92.5 -203.5q31 -33 25 -60 q-4 -27 -51 -32t-82 18q-29 18 -65 78.5t-36 89.5q0 25 -24 133q-16 72 -17.5 118z" />
<glyph unicode=")" horiz-adv-x="598" d="M20 -410l66 62q68 61 68 75.5t20 39.5q45 49 112.5 208.5t108.5 315.5l39 139q25 88 6.5 269.5t-57.5 258.5q-47 90 2 119q31 18 52.5 9t43.5 -52q27 -45 56.5 -161.5t37.5 -213.5q2 -61 0 -110t-14 -107.5t-22.5 -94.5t-21.5 -70.5t-11 -36.5q-14 -59 -57 -188.5 t-64 -174.5q-18 -45 -104 -166l-88 -121h-173z" />
<glyph unicode="*" horiz-adv-x="688" d="M21.5 723.5q-1.5 7.5 13.5 24.5q25 25 86 32q53 6 65.5 19.5t-2 31t-23.5 44t3 63.5q6 14 18.5 25.5t22.5 11.5q31 0 55.5 -18.5t24.5 -41.5q0 -10 6 -19t16 -9q23 0 23 32.5t28 81.5q31 51 63 48.5t38 -58.5q4 -41 -11.5 -65.5t-15.5 -48.5v-33l78 43q80 45 113 45 q20 0 25 -9.5t1 -45.5q-2 -35 -12 -49.5t-39 -28.5q-49 -23 -49 -31q0 -6 59.5 -31.5t59.5 -50.5q0 -49 -43 -60.5t-113 17.5q-51 20 -57 10t37 -80q29 -45 32.5 -62t-8.5 -36q-16 -27 -40.5 -29t-43.5 21q-20 27 -38.5 21.5t-22.5 -39.5q-4 -23 -12.5 -32t-28.5 -9 q-27 0 -33 14t-10 84q-4 100 -27 102q-12 0 -31 -18q-18 -18 -120 -76q-68 -39 -76 -4q-6 43 67 104q66 55 66 66q-4 8 -22.5 5t-51.5 0t-51 15q-18 16 -19.5 23.5z" />
<glyph unicode="+" horiz-adv-x="872" d="M20 422q0 29 13.5 40t64.5 30q80 27 207 38l127 11l6 131q5 133 19 151q14 16 22 17.5t37 -15.5q20 -10 24.5 -31.5t0.5 -103.5l-4 -121l73 6q35 2 72 7.5t59.5 9.5t43 8t31.5 3t20.5 -7t12.5 -19.5t3 -35.5q0 -49 -28.5 -65.5t-116.5 -16.5t-127 -15l-37 -14l10 -137 q8 -113 -4 -157t-49 -44q-18 0 -24.5 11.5t-6.5 52.5q0 63 -14.5 157.5t-26.5 104.5q-6 8 -69.5 0t-150.5 -21.5t-128 -15.5q-43 -2 -51.5 4t-8.5 37z" />
<glyph unicode="," horiz-adv-x="243" d="M21.5 -203.5q-3.5 29.5 19.5 60.5q20 31 37 120t35 99q61 35 96 -21q18 -29 13 -65.5t-29 -50.5q-14 -10 -25 -54q-8 -33 -50 -75.5t-67.5 -42.5t-29 29.5z" />
<glyph unicode="-" horiz-adv-x="483" d="M23 324q6 12 26 26q25 20 211 21q117 0 154 -4.5t41 -18.5q23 -61 -33.5 -86.5t-185.5 -15.5q-238 18 -213 78z" />
<glyph unicode="." horiz-adv-x="212" d="M21 -11q5 50 42 68q35 18 45.5 17.5t39 -20t41 -64.5t-6.5 -68q-23 -27 -66.5 -31t-68.5 17q-31 31 -26 81z" />
<glyph unicode="/" horiz-adv-x="761" d="M20 -109q0 37 48.5 135.5t107.5 180.5q78 109 214 370t151 279q25 31 50 80t54 80q25 29 35 30t37 -22q27 -25 23.5 -48.5t-40.5 -78.5q-35 -51 -184 -339t-166 -306q-20 -23 -20 -33q0 -8 -24.5 -46t-70 -110.5t-81.5 -140.5q-63 -121 -111 -82q-23 18 -23 51z" />
<glyph unicode="0" horiz-adv-x="784" d="M20 475q0 176 205 385l111 115l74 -8q92 -8 167.5 -64.5t116.5 -148.5q100 -221 56 -463q-51 -274 -152 -363q-37 -33 -58.5 -38t-90.5 1q-121 10 -157 22.5t-89 61.5q-82 76 -132.5 214.5t-50.5 285.5zM158 469q-12 -141 35 -252t143 -166q68 -37 116 -32.5t93 51.5 q41 43 59.5 96t36.5 184q23 154 -24.5 291t-137.5 186q-31 16 -50 9t-101 -68q-86 -63 -124 -130t-46 -169z" />
<glyph unicode="1" horiz-adv-x="274" d="M27 -57q-14 49 26 426q2 23 6 53q47 430 66 477q10 23 33 43q39 33 59 14q33 -27 37 -55.5t-16 -83.5q-29 -72 -66 -331t-39 -414q-2 -88 -15.5 -123t-43.5 -35q-39 0 -47 29z" />
<glyph unicode="2" horiz-adv-x="790" d="M23 57q16 39 184 189q6 6 14 12q223 199 275 444q10 47 8 66.5t-21 42.5q-43 61 -130 37.5t-128 -105.5q-10 -25 -22.5 -31.5t-36.5 -4.5q-45 2 -56.5 18t7.5 53q25 43 112.5 128t139.5 83q47 -2 115.5 -32.5t90.5 -59.5q43 -57 20.5 -215t-87.5 -254q-27 -39 -27 -53 q0 -8 -73.5 -84t-73.5 -84q0 -20 101.5 -18.5t195.5 9t129 -11.5q43 -43 -84 -86q-2 -2 -6 -2q-74 -25 -271 -26l-196 -2l-53 -52q-37 -35 -49.5 -39t-39.5 15q-49 31 -38 63z" />
<glyph unicode="3" horiz-adv-x="751" d="M20 55q0 25 54.5 60t89.5 35q41 0 130 29.5t165 70.5q90 45 132 129t-11 113q-20 10 -131 45q-80 25 -96.5 36t-18.5 43q-4 39 18.5 60.5t55 29t76.5 27t73 51.5q35 41 36 57.5t-30 30.5q-35 20 -99.5 -8t-105.5 -82q-84 -104 -114 -12q-12 31 -8.5 47t28.5 47 q61 82 156.5 115t174.5 21.5t122 -50.5q35 -31 -1 -124t-106 -150q-45 -37 -45 -44t53 -26q43 -14 76 -58t33 -89q0 -41 -21.5 -96.5t-56.5 -98.5q-51 -68 -138 -118t-325 -144q-55 -23 -110.5 -4.5t-55.5 57.5z" />
<glyph unicode="4" horiz-adv-x="679" d="M29 408q-14 33 1 65.5t109 175.5q41 62 41 74q0 8 21.5 31.5t21.5 52.5q0 31 22.5 49t53.5 14q49 -8 48 -40.5t-52 -120.5q-109 -186 -94 -201q6 -6 102 -23q90 -14 113.5 2.5t34.5 102.5q14 129 39.5 241.5t41.5 126.5q35 27 66 13.5t36 -51t-20 -82.5 q-14 -23 -39.5 -145t-25.5 -171q0 -31 43 -39q55 -14 64.5 -39.5t-16.5 -45t-58 -19.5q-35 0 -49.5 -28.5t-40.5 -164.5q-31 -147 -68 -182q-31 -31 -50.5 -22.5t-13.5 49.5l31 168q25 129 17.5 141t-103.5 23.5t-174 11.5q-57 -2 -73.5 4t-28.5 29z" />
<glyph unicode="5" horiz-adv-x="743" d="M20.5 239q-0.5 9 16 25.5t32 16.5t70.5 -19q55 -18 84 -17t123 21q104 25 140 45.5t67 79.5q27 51 16.5 90t-63.5 80q-43 33 -61.5 37t-90.5 -8t-107.5 -17.5t-54 2t-20.5 14.5t-4 32q-6 49 12 86q16 29 19.5 128t-11.5 128q-12 24 21 57q25 25 58.5 28t191.5 -6 q137 -6 181 -13t62 -25q18 -16 20.5 -27.5t-5.5 -26.5q-12 -16 -45 -21t-144 -5q-170 0 -183 -14.5t-23 -102.5l-9 -90h95q61 0 87.5 -7.5t63.5 -37.5q94 -78 117.5 -156t-19.5 -170q-51 -106 -142 -155.5t-267 -63.5q-90 -8 -132 7.5t-79 68.5q-16 27 -16.5 36z" />
<glyph unicode="6" horiz-adv-x="786" d="M28 541.5q15 76.5 66 175.5q41 78 134.5 181t144.5 126q47 23 69.5 33t70.5 29.5t76.5 24.5t64.5 9t59.5 -8t38.5 -37q18 -39 12 -58.5t-35 -28.5t-59.5 -10t-61 -5t-39.5 -12q-14 -14 -37.5 -14.5t-160.5 -112.5q-80 -66 -115 -105t-55 -84q-90 -193 -60 -199 q12 -4 45 39q51 66 184.5 97.5t215.5 -2.5q49 -20 71.5 -60.5t30.5 -118.5q10 -94 -12.5 -162.5t-81.5 -127.5q-217 -217 -442 -13q-47 43 -73 101.5t-50 181.5q-16 84 -1 160.5zM198.5 225q6.5 -10 73.5 -45q145 -72 250 45q33 37 43 59.5t10 63.5q1 66 -28 82 q-33 16 -99.5 13t-117.5 -25q-33 -16 -54.5 -39t-44.5 -66q-39 -78 -32.5 -88z" />
<glyph unicode="7" horiz-adv-x="671" d="M25 1004q6 25 50 44t115.5 33.5t131 23.5t137.5 18.5t98 11.5q20 4 57 -31t37 -60q0 -27 -29.5 -69.5t-29.5 -52.5t-17.5 -37t-45 -69t-44.5 -75q-18 -35 -17 -48t24 -42q57 -78 -68 -133q-37 -14 -57.5 -35.5t-44.5 -66.5q-39 -78 -39 -90q0 -6 -35 -87t-87 -161 t-89 -68q-33 12 -25 49q12 53 164 359q23 43 14.5 58.5t-49.5 6.5l-74 -16q-25 -4 -33 2t-16 37q-10 51 24 84t60 33q25 0 99 14l73 16l90 162q88 162 82 174q-6 10 -167.5 -16.5t-233.5 -48.5q-27 -8 -47.5 19.5t-7.5 60.5z" />
<glyph unicode="8" horiz-adv-x="610" d="M21.5 200.5q-1.5 16.5 7 34t19.5 44t34.5 63.5t54.5 84q41 61 41 74.5t-57 60.5q-72 57 -82 126t37 177l20 51q16 41 45 79t52 50q35 16 68.5 18.5t41.5 -13.5q10 -14 31 -15q12 0 39.5 -15t75 -46t81.5 -49q53 -29 58 -56q6 -20 -34 -74.5t-60 -54.5q-8 0 -14.5 -8 t-6.5 -20q0 -14 -9 -27.5t-29.5 -35t-37.5 -44.5l-30 -43l53 -57q51 -55 76 -92q41 -66 16 -205t-82 -164q-18 -6 -70.5 -30.5t-90.5 -39t-56 -14.5q-35 0 -98.5 67.5t-83.5 123.5q0 2 -4 13t-4 16t-1.5 21.5zM154 221q0 -8 14 -28q20 -35 57 -56q25 -12 44.5 -9t68.5 28 q55 29 65.5 43t10.5 61q0 41 -9 63.5t-40 55.5q-45 47 -71 50t-46 -38q-29 -57 -55.5 -99t-32.5 -52.5t-6 -18.5zM170 762q-6 -55 16 -82q39 -43 70 -36t90 75q86 96 86 115q2 11 -35 34q-49 31 -104 41q-39 6 -51.5 0t-32.5 -39q-33 -53 -39 -108z" />
<glyph unicode="9" horiz-adv-x="661" d="M23 555q-4 86 2 120t34 89q47 96 150.5 182.5t193.5 104.5q59 12 81 10t51 -25q39 -31 77.5 -129t26.5 -135q-8 -29 -22.5 -213t-22.5 -223q-4 -23 -11.5 -121t-26.5 -158.5t-62 -66.5q-47 -6 -61.5 20.5t-6.5 102.5q10 90 23 104q10 12 35.5 193.5t19.5 189.5 q-6 6 -127 -113q-90 -86 -115.5 -101t-85.5 -15q-94 0 -121.5 32.5t-31.5 151.5zM141 584q2 -51 9.5 -62.5t33.5 -15.5q51 -6 112.5 53t118 137t68.5 88q27 27 23 63t-23.5 67.5t-31.5 29.5q-68 -10 -144 -70.5t-123 -138.5q-31 -51 -39 -79.5t-4 -71.5z" />
<glyph unicode=":" horiz-adv-x="241" d="M20 43q0 41 25 66q20 25 55 25.5t54 -21.5q16 -18 10 -79t-26.5 -84.5t-47.5 -19.5t-47 35q-23 37 -23 78zM102 522q-46 66 9 125q47 49 83.5 27.5t24.5 -90.5q-10 -72 -47 -91.5t-70 29.5z" />
<glyph unicode=";" horiz-adv-x="286" d="M20 -206q-2 26 23 52q25 29 43 78t18 94q0 37 19.5 56.5t45.5 15.5t38 -31q14 -25 7 -82t-30.5 -104t-67.5 -85t-65 -32q-29 12 -31 38zM139 530q-20 58 33 113q35 33 58.5 33t30.5 -32t-1 -89q-14 -74 -59 -74q-43 0 -62 49z" />
<glyph unicode="&#x3c;" horiz-adv-x="745" d="M20 517q0 13 17 38q25 37 61 37q76 0 228.5 71.5t240.5 147.5q84 76 103 76q20 0 37.5 -19.5t17.5 -40.5q0 -18 -71.5 -89.5t-90.5 -71.5q-8 0 -93 -53.5t-110 -59.5q-34 -9 -34 -25q0 -14 100 -91t199.5 -159.5t99.5 -111.5q0 -45 -42 -57.5t-62 26.5q-16 31 -32 31 t-175 125q-135 106 -192.5 136t-115.5 22q-35 -4 -48 1t-25.5 29.5t-12.5 37.5z" />
<glyph unicode="=" horiz-adv-x="1042" d="M20 623q0 37 152 53t268 12q512 -23 545 -35q16 -6 25 -26q12 -35 11 -42t-24 -20q-12 -6 -51 -7t-106.5 4t-146.5 10.5t-194.5 10.5t-224.5 7q-174 4 -214 9.5t-40 23.5zM51 379q-37 37 47 47q84 12 482 6q352 -4 393 -22q27 -16 8 -60q-12 -27 -23.5 -32t-42.5 -1 q-57 10 -270 14.5t-391 13.5t-203 34z" />
<glyph unicode="&#x3e;" horiz-adv-x="806" d="M35.5 745.5q-35.5 45.5 7.5 88.5q23 23 50.5 22.5t45.5 -20.5q16 -23 45 -23q18 0 47 -17.5t80 -48t111 -51.5q70 -27 110.5 -48t133.5 -54q70 -25 93 -39t25 -33q6 -41 -17.5 -58.5t-71.5 -30.5t-74 -34q-37 -29 -46 -28q-4 0 -170.5 -94.5t-187.5 -108.5 q-63 -39 -93 -45t-40 20q-12 35 7.5 70t66.5 55q53 25 106 58.5t62 38.5q59 25 131.5 65.5t77.5 61.5q6 33 -353 167q-111 41 -146.5 86.5z" />
<glyph unicode="?" horiz-adv-x="671" d="M20 807q0 33 69 108t112 89q49 14 168 10q109 -4 155.5 -32t93.5 -114q29 -53 32 -74.5t-9 -80.5q-16 -63 -44 -99t-110 -100q-41 -31 -51 -61.5t1.5 -52t25.5 -51.5t14 -50q0 -33 -30.5 -68.5t-57.5 -35.5t-44 23.5t-9 51.5q6 23 -12.5 94.5t-6.5 120.5 q12 41 64.5 103.5t75.5 62.5q43 0 57 58q16 80 -45 135q-47 43 -131 43q-61 0 -105.5 -13.5t-65 -34t-32.5 -42t-24.5 -40t-26.5 -24.5q-23 -8 -43.5 15.5t-20.5 58.5zM320 69.5q4 16.5 24 34.5q39 39 93.5 30t54.5 -56q0 -23 -34 -85.5t-50 -68.5q-23 -10 -50.5 21.5 t-35.5 74.5q-6 33 -2 49.5z" />
<glyph unicode="@" horiz-adv-x="1243" d="M25.5 342.5q17.5 179.5 89.5 316.5q68 129 126 187.5t156 93.5q47 16 108.5 18.5t211.5 -12.5q147 -12 236 -56t165 -138q63 -78 77.5 -141.5t-1.5 -184.5q-14 -104 -60.5 -197.5t-111.5 -152.5q-96 -84 -186.5 -84t-159.5 84l-47 57l-43 -41q-37 -39 -106.5 -71.5 t-112.5 -32.5q-174 0 -156 233q12 178 132 318.5t259 140.5q59 0 99 -34t30 -77q-8 -31 -2 -34t35 16q29 18 53 -2q18 -16 21.5 -41t-7 -56.5t-23.5 -63.5t-28.5 -75t-19.5 -77q-6 -47 -2 -62.5t30 -32.5q45 -29 98.5 -15.5t96.5 64.5q35 41 71 142.5t36 156.5 q0 111 -86 201q-111 115 -408 133q-98 6 -132 2t-75 -24q-68 -35 -109.5 -91.5t-111.5 -213.5q-29 -57 -29 -205q0 -184 49.5 -273.5t186.5 -160.5q154 -78 332 -45q98 16 177 63t206 166q133 125 133 35q0 -33 -125 -158t-250 -188q-86 -43 -123 -50.5t-150 -7.5 q-127 0 -175 15.5t-156 97.5q-104 78 -137 118t-56 115q-43 145 -25.5 324.5zM307.5 220q-0.5 -38 19 -76t42.5 -38q72 0 148.5 62.5t125.5 159.5q76 152 53 159q-4 2 -8 2q-16 0 -63 37t-58 37q-66 -4 -146.5 -90t-80.5 -151q0 -37 -16 -48q-16 -16 -16.5 -54z" />
<glyph unicode="A" horiz-adv-x="901" d="M23.5 -49.5q7.5 26.5 19.5 53.5t30.5 68t28.5 71q14 45 29.5 74t30.5 74q10 31 56 140.5t83 204.5t37 116q0 59 88 153q35 39 49 35q20 -6 88 -145q6 -14 39 -84q23 -49 79 -160t85 -175.5t29 -78.5q0 -8 36.5 -91t45.5 -143q6 -49 3 -63t-26 -27q-31 -16 -52.5 1.5 t-21.5 61.5t-55 169l-55 125l-117 -13q-119 -10 -191 -12h-73l-68 -155q-63 -150 -99 -208q-34 -55 -56 -55h-3q-29 6 -38 21.5t-1.5 42zM350 428q3 -4 19 -4q27 0 91 10q102 16 126 29q12 8 -7.5 49t-48 93.5t-32.5 70.5q-8 45 -35 29q-23 -12 -35 -52q-10 -37 -33.5 -93 t-37 -91t-7.5 -41z" />
<glyph unicode="B" horiz-adv-x="798" d="M20 10.5q0 22.5 9 48.5q33 80 45 284t17 380t15 199q16 27 45 22.5t56 -37.5l29 -39l83 33q82 31 156 31q47 0 68.5 -8.5t50.5 -36.5q31 -33 37 -53q4 -12 3 -36q0 -17 -1 -40q-4 -59 -25.5 -107.5t-41 -75t-19.5 -32.5q0 -4 20.5 -11.5t61.5 -28t76 -50.5 q39 -33 51 -55.5t18 -67.5q3 -20 3 -41q1 -89 -57 -183q-70 -116 -183 -163q-87 -31 -163 -31q-20 0 -39 2q-93 10 -180 32q-74 19 -93 20q-3 0 -5 -1q-16 -6 -26.5 8.5t-10.5 37zM156 107.5q-4 -35.5 4 -62.5q14 -14 157 -16q98 0 130 6t81 37q39 25 63.5 52.5t47.5 74.5 l43 84l-33 45q-31 42 -74 65q-40 21 -105 21h-12q-74 -2 -139 -27q-47 -19 -75 -19q-14 0 -23 5q-31 16 -37 9t-6 -56q0 -35 -9 -109t-13 -109.5zM193 584q0 -95 7 -95q8 0 85 29q84 31 152.5 94.5t76.5 116.5q2 16 2 29q0 32 -14 42q-20 14 -67.5 13.5t-57.5 -14.5 q-8 -14 -37 -14.5t-88 -53.5q-43 -39 -51 -59.5t-8 -87.5z" />
<glyph unicode="C" horiz-adv-x="983" d="M24 248q-3 16 -3 47q0 33 4 84q10 156 43.5 233.5t134.5 184.5q141 147 266 186q55 18 95 18q24 -1 42 -7q49 -18 148 -113q58 -55 72 -91q5 -13 5 -24q0 -21 -18 -39q-18 -16 -45 -15t-35 21q-12 33 -82.5 79t-109.5 46q-104 0 -244 -129q-68 -66 -99.5 -129t-43.5 -162 q-7 -55 -7 -101q0 -154 74 -218q25 -23 120 -46.5t196 -31.5q24 -3 46 -2q67 -1 119 21q70 30 154 112q70 70 90 70q3 0 6 -2q11 -11 11 -27q0 -50 -99 -154q-84 -85 -144 -117q-57 -30 -131 -30h-9q-84 2 -238 32.5t-186 51.5q-35 23 -88 135q-38 84 -44 117z" />
<glyph unicode="D" horiz-adv-x="786" d="M23 821q8 47 53 87t96 46q56 9 66 17q5 6 27 6q28 1 82 -9q97 -18 149 -42q59 -29 113.5 -70t54.5 -57q0 -12 53 -90q39 -57 45 -83q3 -13 3 -40t-3 -68q-4 -66 -15.5 -106.5t-37.5 -96.5q-45 -86 -125 -161.5t-146 -92.5q-61 -16 -100 -30q-16 -6 -37 -6q-23 0 -53 7 q-58 13 -98 44q-33 25 -35 76t-11.5 185t-52.5 300q-30 107 -30 159q0 15 2 25zM160 725q4 -66 18.5 -149.5t24.5 -251.5l10 -203h51q25 0 69 12t102.5 44t108.5 77t85 118.5t35 162.5q0 68 -33 130t-93 107q-61 44 -147 62q-37 8 -78 8q-53 0 -112 -13q-33 -8 -38 -21 q-4 -9 -3 -48q-1 -15 0 -35z" />
<glyph unicode="E" horiz-adv-x="843" d="M20 10q0 27 32 213.5t61 325.5q14 72 16 167t12.5 154.5t53.5 108.5q15 17 29 17q35 0 69 -101q6 -20 26 -16q14 2 70 20q53 18 94 33q90 29 124 35t57 -4q31 -13 31 -45q0 -6 -1 -13q-2 -25 -12 -34t-43 -15q-43 -8 -169 -55t-175 -76q-29 -14 -40 -35.5t-22 -79.5 q-12 -67 -12 -88q0 -8 2 -10q4 -4 42 14.5t101.5 47t112.5 40.5q25 6 37 1t29 -31q20 -29 18 -39t-30.5 -35t-113.5 -53.5t-143 -57.5q-66 -33 -80 -48t-20 -62l-26 -203l122 10q98 6 278 52q172 45 215 45h3q39 -4 47 -11.5t8 -38.5q0 -33 -17.5 -43t-111.5 -34 q-55 -14 -98 -27.5t-60.5 -21t-34 -11.5t-34.5 -4q-43 0 -57 -14q-16 -14 -171 -26q-79 -6 -126 -5q-45 0 -61 5q-32 11 -32 48z" />
<glyph unicode="F" horiz-adv-x="825" d="M29 80q14 63 17 273t7 388.5t25 198.5q23 16 38 15t34.5 -8t27.5 -5.5t131 19.5q100 12 260 63q154 49 188 49h3q29 0 37 -8t8 -37t-9.5 -38t-47.5 -17q-31 -6 -47.5 -13.5t-29 -14.5t-79 -28.5t-182.5 -50.5l-240 -59l-4 -117q-1 -26 -1 -47q0 -73 11 -84q6 -6 13.5 -6 t24.5 6t36.5 13.5t60.5 22.5t86 28q80 25 96.5 25t32.5 -19q21 -27 21 -51q0 -26 -25 -48q-31 -27 -187.5 -66.5t-164.5 -62.5q-8 -27 -14 -132t-25 -189t-65 -103q-10 -3 -18 -3q-28 0 -28 44q0 27 9 62z" />
<glyph unicode="G" horiz-adv-x="962" d="M20 266v12q0 34 11 101q8 55 17 92t14.5 53.5t27 66.5t33.5 81q39 94 135.5 184t190.5 117q35 11 75 11q41 0 86 -12q90 -24 117 -71q14 -29 14 -65q0 -10 -1 -20q-5 -48 -29 -71q-25 -20 -31 -19t-25 28q-41 59 -67 74q-18 12 -50 12q-12 0 -26 -2q-66 -10 -109 -31 q-49 -25 -102 -84t-78 -117l-51 -110q-23 -43 -31 -142q-2 -25 -2 -47q0 -57 15 -83q22 -36 100 -64q82 -29 157 -29q85 0 160 39q94 49 173 110.5t81 88.5q4 23 -7 27.5t-64 4.5q-66 0 -149 19.5t-107 40.5q-20 16 -20.5 42.5t20.5 35.5q18 6 80 6q54 0 143 -5 q190 -10 199 -24q14 -29 19 -104q2 -24 2 -44q0 -40 -7 -59q-14 -37 -114.5 -120t-188.5 -130q-113 -60 -243 -60q-60 0 -124 13q-92 18 -143 59.5t-82 121.5q-16 41 -19 73z" />
<glyph unicode="H" horiz-adv-x="774" d="M20.5 502q-0.5 12 14.5 28q23 25 33 250q6 180 18 239.5t47 59.5q20 0 31.5 -7t16.5 -24.5t6 -39t-1 -61.5t-4 -81t-5 -106.5t-5 -130.5v-60h203q201 0 215 15.5t22 206.5q8 174 18.5 218t47.5 56q23 10 34 8t23 -18q18 -24 18 -61t-20 -142q-14 -72 -20 -256t-9.5 -338 t-11.5 -172q-14 -27 -53 -20l-39 4v368h-440l-6 -88q-12 -250 -31 -276q-8 -12 -31 -13q-41 0 -50 38q-5 20 -5 64q0 39 4 97q2 49 2 86q0 85 -12 115q-10 29 -10.5 41z" />
<glyph unicode="I" horiz-adv-x="473" d="M20 -18v43q0 45 29 49q68 8 84.5 20t28.5 60q12 47 19 315q3 110 3 190q0 114 -6 164q-4 43 -12 53.5t-33 10.5q-31 0 -60.5 22.5t-29.5 44.5q0 21 27 39q38 15 150 15q22 0 46 -1q152 -4 172 -10q18 -8 15 -47q-4 -29 -15.5 -36t-60.5 -9q-43 -4 -57.5 -11t-18.5 -26 q-6 -23 -13 -378t-12 -377q-4 -18 9.5 -24.5t66.5 -12.5q57 -4 68.5 -11.5t11.5 -39.5v-43h-412z" />
<glyph unicode="J" horiz-adv-x="1073" d="M20 231q0 31 21.5 40.5t40.5 -13.5q25 -31 117 -69.5t139 -38.5q76 0 164 75.5t102 155.5q6 30 6 68q0 42 -7 93q-13 97 -46 195l-43 121l-209 -4q-55 -1 -94 -1q-59 0 -84 2q-41 3 -57 19q-14 16 -15.5 25.5t11.5 24.5q14 18 39.5 15t41.5 9t204 19.5t382.5 23.5 t229.5 53q21 20 40 20q11 0 21 -6q29 -18 29 -69q0 -57 -93.5 -94t-234.5 -37q-59 0 -66 -16q-2 -3 -2 -11q0 -29 25 -124q25 -88 32 -202q2 -38 2 -70q0 -65 -9 -107q-10 -41 -76 -131.5t-86 -90.5q-16 0 -49 -34q-37 -41 -106 -52q-24 -5 -48 -5q-45 0 -90 14 q-66 18 -149 91t-83 111z" />
<glyph unicode="K" horiz-adv-x="794" d="M20 -29q-4 6 6.5 55.5t30 169t29.5 257.5q28 393 61 452q12 25 40 25t46 -23q10 -13 10 -47q0 -29 -7 -74q-40 -244 -40 -286q0 -7 1 -8t3 -1q15 0 89 52q84 59 180 143t125 135q31 57 67 57q7 0 13 -2q30 -9 30 -46q0 -17 -6 -39q-8 -31 -110.5 -145t-122.5 -114 q-14 0 -80 -57l-63 -59l77 -51q84 -53 205 -169t148 -167q23 -45 23.5 -89t-21.5 -51q-2 -1 -3 -1q-17 0 -57 53q-47 63 -174 180t-174 137q-27 14 -43 25.5t-22.5 16.5t-17.5 9t-36 4h-49l-10 -94q-20 -186 -64 -235q-18 -20 -45.5 -24.5t-38.5 11.5z" />
<glyph unicode="L" horiz-adv-x="757" d="M21.5 -87q3.5 24 48.5 128q53 121 97 315q31 138 31 195q0 23 -5 33q-4 29 -2 48t14 71.5t16 74.5q6 47 35 78q29 29 42 29t42 -31q10 -12 15 -20.5t7.5 -17.5t-1 -27.5t-6.5 -38t-11 -63.5t-16 -87q-10 -68 -40 -196t-50 -215q-15 -67 -14 -85q0 -6 1 -6q6 -4 34 2 q27 6 61 12q17 3 38 4q19 0 41 -3q53 -10 195 -19q100 -8 119.5 -14t23.5 -33q2 -27 -8 -36t-59 -21q-46 -12 -124 -12q-43 0 -95 4q-51 2 -93 5h-9q-38 -1 -88 -21q-56 -24 -122 -83q-43 -37 -55 -40t-39 21.5t-23.5 48.5z" />
<glyph unicode="M" horiz-adv-x="899" d="M22 -16.5q1 24.5 19 114.5q98 453 113 723q2 47 6 56.5t28 17.5q27 8 56.5 -16.5t29.5 -57.5q0 -25 26 -117t52 -155q23 -61 56.5 -112.5t50.5 -51.5q8 0 25.5 13.5t41 43t46 70.5t40 104.5t23.5 135.5q8 74 15 101.5t28 39.5q29 23 40 21.5t34 -25.5q16 -18 18 -40v-7 q0 -24 -10 -82q-10 -59 -10 -144q0 -36 2 -78q6 -138 28 -266q14 -70 30.5 -107.5t59.5 -94.5q16 -25 1 -46.5t-50 -21.5q-49 0 -84 62.5t-49 137t-24.5 137t-15.5 62.5t-66 -67q-39 -41 -59.5 -53.5t-55.5 -12.5q-53 0 -92 41q-35 39 -75 107.5t-40 91.5q0 25 -14.5 24.5 t-14.5 -4.5q0 -14 -33.5 -194t-45.5 -242q-39 -176 -76 -178q-16 0 -41 27q-14 18 -13 42.5z" />
<glyph unicode="N" horiz-adv-x="716" d="M25 53q12 63 12 285t-4 378q-1 44 -1 80q0 88 7 119q14 12 45 23q20 6 43 -15.5t80 -105.5q229 -332 315 -473q18 -27 33.5 -42t19.5 -11q10 6 10.5 415t10.5 429q10 18 31 18q16 0 25.5 -10t16.5 -46t10.5 -92.5t6.5 -160.5q10 -251 10 -404q0 -96 -4 -152 q-10 -148 -59 -192q-31 -27 -57.5 -7t-73.5 104q-51 90 -154 237l-145 215q-18 27 -34.5 43.5t-21.5 13.5q-5 -4 -5 -51q0 -33 2 -87q6 -132 9 -273v-32q0 -121 -20 -210q-16 -61 -51 -69q-40 -10 -54 6q-7 9 -8 28q0 16 5 39z" />
<glyph unicode="O" horiz-adv-x="897" d="M30 622q22 98 115 222q41 51 63.5 67.5t61.5 22.5q43 8 76 21.5t46.5 17.5t49 -6.5t105.5 -40.5q94 -45 158.5 -103.5t119.5 -148.5q37 -63 44.5 -95t7.5 -130q0 -199 -72 -296.5t-270 -162.5q-130 -44 -182 -44h-3q-52 1 -106 52q-49 43 -110.5 164t-90.5 223 q-22 86 -22 156q1 44 9 81zM143 550q-2 -18 -2 -36q0 -113 74 -254q61 -119 87 -143.5t81 -24.5q61 0 157.5 39t141.5 84q76 72 84 203q1 13 0 26q0 115 -59 209q-53 84 -146.5 136.5t-159.5 60.5q-33 6 -55 -5t-72 -59q-117 -110 -131 -236z" />
<glyph unicode="P" horiz-adv-x="641" d="M20 866q0 31 36 76t71 57q48 18 111 18q40 1 88 -7q120 -18 194 -68q59 -42 84 -98q17 -38 17 -73q-1 -18 -5 -36q-12 -53 -46 -98q-32 -45 -96 -69q-47 -18 -102 -17q-18 0 -38 2q-25 3 -43 3q-40 0 -45 -15q-1 -3 -1 -8q0 -50 64 -347q13 -59 13 -97q0 -28 -7 -46 q-10 -27 -16 -32t-20 7q-23 16 -23 49t-12 46q-25 27 -71 260t-48 340q-2 121 -10 127q-4 6 -15.5 -3.5t-24 -15.5t-32.5 6q-23 18 -23 39zM221 774q8 -68 16.5 -85t36.5 -25q15 -4 34 -4q30 0 70 10q64 16 97 45q31 29 31 59q0 19 -12 38q-32 50 -129 75q-57 14 -89 22 q-39 13 -51 -19q-7 -19 -7 -57q0 -25 3 -59z" />
<glyph unicode="Q" horiz-adv-x="980" d="M26 480q-5 29 -5 59q0 65 20 135q16 53 37.5 86t75.5 86q88 84 116.5 93t28.5 42t23 66q16 20 30.5 24t55.5 -2q37 -6 65.5 -18.5t61 -31t53.5 -28.5q16 -8 59 -49t98.5 -111.5t93.5 -158.5t45 -190q1 -12 1 -24q0 -91 -47 -184l-35 -67l82 -96q75 -90 75 -131 q0 -28 -36 -33h-3q-42 0 -137 133l-24 33l-64 -64q-51 -53 -113.5 -86t-113.5 -33h-4q-88 0 -183 87q-98 89 -180 247q-63 125 -76 216zM125 520q4 -68 15.5 -109.5t39.5 -97.5q94 -186 196 -241q42 -24 84 -24q60 0 120 46q31 25 45 35t24 26.5t10 24.5t-10 27.5t-23.5 34 t-43.5 47.5q-108 116 -108 165q0 22 22 31q12 4 28 4q23 0 66 -47t82 -95t49 -48h1q18 0 42 74q17 54 17 85q0 30 -11 89q-18 86 -73.5 174t-131.5 151q-57 47 -91 60q-17 6 -37 6q-19 0 -40 -6q-47 -14 -124.5 -88t-112.5 -135q-27 -51 -33 -81q-4 -18 -4 -53q0 -24 2 -55z " />
<glyph unicode="R" horiz-adv-x="956" d="M24 918q7 28 19 42.5t20 14.5q27 0 47.5 -26.5t20.5 -57.5q0 -35 17.5 -86t29.5 -51q6 0 27.5 50t65.5 104.5t102 62.5q37 6 53 0t45 -33q55 -53 73 -125q11 -42 11 -80q0 -27 -5 -51q-13 -59 -39 -103t-51.5 -52.5t-53.5 -30.5q-20 -14 -19.5 -21.5t27.5 -28.5 q18 -14 50 -31.5t114 -76.5q98 -74 192 -171t117 -149q43 -100 48 -121.5t-13 -37.5q-20 -23 -45 -11.5t-41 48.5q-35 82 -148 201.5t-219 191.5q-67 45 -137 79q-56 28 -73 29q-4 0 -5 -2q-4 -20 0 -28.5t17.5 -72t17.5 -140.5q4 -55 4 -85q0 -15 -1 -24q-3 -27 -20 -41 q-25 -23 -49 -6q-25 14 -51.5 115.5t-37.5 228.5t-42.5 288t-56.5 214q-13 32 -13 56q0 10 2 18zM242 570q3 -3 9 -3q22 0 87 31q53 25 78.5 58.5t27.5 65.5t-6 60.5t-20 46t-19 21.5q-4 2 -8 2q-23 0 -65 -50q-50 -60 -68 -122q-20 -68 -20 -95q0 -11 4 -15z" />
<glyph unicode="S" horiz-adv-x="864" d="M20 217q0 34 31 34q9 0 19 -3q18 -6 75 -31q72 -29 119 -45q74 -27 86 -39q14 -13 77 -13q17 0 35 1q94 4 130 22q41 20 78 62.5t57 91.5q14 33 11 46t-31 42q-33 35 -140.5 82t-205 95t-119.5 91q-14 25 -14 65q0 25 6 56q14 80 55 146q25 37 40 56t49 52t79 48.5 t102 15.5h4q121 0 244 -127q27 -29 31 -43.5t-7 -38.5q-13 -35 -41 -38h-4q-26 0 -51 29q-33 35 -89 68t-85 33q-39 0 -116.5 -59.5t-94.5 -145.5q-6 -31 1 -51.5t33 -36.5t52.5 -27.5t77.5 -32t92 -38.5q29 -12 52.5 -22.5t30.5 -12.5t19.5 -9.5t23.5 -16.5t38 -34 q43 -37 55.5 -59t16.5 -72q1 -15 1 -30q1 -51 -15 -97q-20 -59 -55.5 -99t-77.5 -70.5t-74.5 -45t-55.5 -18.5q-18 -3 -41 -3q-62 -1 -159 23q-132 32 -238.5 90t-106.5 109z" />
<glyph unicode="T" horiz-adv-x="919" d="M20 891q0 39 37 54.5t138 15.5q74 0 158.5 15t226.5 23q169 11 200 23q32 13 57 13q24 0 40 -12q23 -16 23 -48q0 -15 -5 -33q-10 -35 -22.5 -42t-65.5 -7q-133 -4 -233.5 -16.5t-106.5 -26.5q-2 -4 -2 -18q0 -21 4 -65q6 -73 17.5 -210t15.5 -254q4 -108 4 -159 q0 -26 -1 -38q-3 -34 -28 -59q-22 -22 -37 -22q-14 0 -22 20q-18 45 -31 268q-27 477 -53 518q-4 6 -32 6q-17 0 -43 -2q-69 -6 -134 -22q-17 -4 -32 -4q-25 1 -44 13q-29 20 -29 69z" />
<glyph unicode="U" horiz-adv-x="804" d="M22 782q3 52 17 72q20 33 41 33q18 0 28.5 -9.5t16.5 -46t9 -93t3 -163.5v-14q2 -84 2 -117.5t5.5 -80t8.5 -57.5t17 -36.5t26.5 -36t43.5 -36.5q2 -4 4 -4q59 -53 91 -69q21 -10 44 -9q12 0 24 2q33 6 79 49t69 88q45 86 85 236.5t64.5 252t38.5 101.5q12 0 33 -35 q14 -19 14 -62q0 -13 -2 -31q-6 -68 -19 -132t-27.5 -126.5t-14.5 -76.5q0 -27 -68 -164q-55 -119 -112.5 -168t-145.5 -57q-13 -1 -26 -1q-45 1 -82 17q-47 22 -137 96q-6 4 -17 15q-43 33 -60.5 61.5t-32.5 124.5t-19 287q-2 79 -2 130q0 38 1 60z" />
<glyph unicode="V" horiz-adv-x="608" d="M21 867q-3 28 12 44q23 23 46 15t38 -41q20 -49 84.5 -256t64.5 -221q1 -23 13 -23q8 0 55 137t98 282.5t66 160.5q22 23 42 23q19 0 35 -21q12 -14 12.5 -28.5t-9.5 -43.5q-84 -209 -139.5 -419t-82 -296t-69.5 -106q-18 -8 -32 -8q-21 0 -33 16q-20 26 -19 88v12v15 q-1 49 -11 107q-12 67 -28.5 117t-51 151.5t-55.5 164.5q-33 102 -36 130z" />
<glyph unicode="W" horiz-adv-x="1069" d="M37 913q18 18 29.5 14.5t44.5 -36.5q51 -53 85.5 -139t82.5 -263q39 -160 51 -167q12 -2 47 30q57 56 85 64q7 2 16 2q24 0 57 -17q31 -16 61.5 -42.5t49 -44t30.5 -17.5q23 0 66.5 105.5t85.5 222t53 129.5q18 23 43 69q23 43 53.5 55.5t54.5 -12.5q16 -16 15.5 -26.5 t-21.5 -38.5q-27 -35 -67.5 -119t-40.5 -102q0 -14 -65 -188.5t-85 -215.5q-12 -25 -4 -45q8 -23 -22 -47q-26 -21 -53 -22q-4 0 -9 1q-18 4 -31.5 20.5t-27.5 59.5q-18 53 -64.5 103.5t-77.5 50.5q-23 0 -56.5 -54.5t-57.5 -125.5q-16 -55 -29.5 -74.5t-34.5 -22.5 q-8 -1 -15 -1q-30 0 -44 21q-18 26 -17 93q0 84 -14 184q-12 88 -72.5 272.5t-91.5 227.5q-25 34 -25 60q0 21 15 36z" />
<glyph unicode="X" horiz-adv-x="858" d="M25 887q8 14 18 13t57 -26q74 -39 326 -356q29 -33 47 -16q25 20 111 186q84 158 102.5 185.5t40.5 27.5q30 0 30 -29q0 -18 -12 -47q-10 -27 -30 -65q-184 -342 -185 -361q0 -16 94.5 -153t153.5 -209q54 -63 60 -90q1 -4 1 -9q0 -23 -28 -47q-20 -18 -30.5 -17 t-37.5 28q-35 33 -140 183.5t-126 168.5q-3 3 -6 3q-14 0 -39 -48q-31 -59 -92 -213q-39 -98 -61.5 -129t-47.5 -21q-25 6 -22.5 35t15 56.5t26.5 59.5t16 42q0 18 36 103t56 116q33 49 35 84v5q0 32 -22 65l-76 100q-61 84 -143 182.5t-109.5 137.5t-17.5 55z" />
<glyph unicode="Y" horiz-adv-x="765" d="M27 934q8 6 26 10h7q48 0 138 -66q99 -73 134 -141q18 -35 50 -79t59.5 -73.5t31.5 -25.5q8 10 41 104.5t72 205t59 147.5q16 29 43 33t47 -21q8 -9 8 -23q0 -19 -13 -47q-23 -51 -23 -63q0 -2 -35 -92t-75 -192.5t-46 -129.5q-6 -23 -19.5 -55.5t-23.5 -89.5 q-10 -72 -23 -103q-88 -233 -108 -251q-10 -8 -27 -7q-29 6 -40 19.5t-6 39t14.5 51.5t25.5 68t25 76q16 68 30 76q13 8 13 30q0 44 -54 146q-49 96 -105 168t-147 162q-84 81 -84 111q0 8 5 12z" />
<glyph unicode="Z" horiz-adv-x="962" d="M24.5 145.5q-8.5 24.5 0.5 53.5q12 57 137 186q43 44 43 62q0 7 -6 10q-8 2 -31 2q-55 0 -68 35q-3 7 -3 13q0 27 59 42q25 6 57 8q78 8 119 23q31 12 117 110t86 121q1 18 -99 19h-29q-84 0 -164 -5q-93 -6 -100 -8l-61 -14q-31 -8 -49 24q-9 16 -9 30q0 23 24 41 q38 28 130 36q104 9 195 9q69 0 129 -5q142 -12 184 -49q25 -20 25 -46q0 -31 -37 -71q-127 -140 -127 -155q0 -2 2 -2q1 0 4 1q31 10 58.5 -11t23.5 -54q-4 -37 -46 -58.5t-132 -31.5q-70 -8 -99.5 -30.5t-134.5 -149.5l-45 -56l47 -24q37 -20 134 -19h36q127 4 252 31 q75 17 143 17q22 0 42 -2q86 -8 102 -35q14 -31 1 -44.5t-58 -13.5q-76 0 -233 -36t-247 -44q-49 -5 -84 -5q-17 0 -31 1q-40 4 -106 25l-125 39q-18 6 -26.5 30.5z" />
<glyph unicode="[" />
<glyph unicode="\" horiz-adv-x="303" d="M20.5 1095q2.5 24 12.5 38q20 23 42.5 15.5t33.5 -40.5q41 -154 65.5 -298t30.5 -222t8 -84q8 -16 26.5 -222t28.5 -249q16 -59 14.5 -109.5t-22.5 -66.5q-14 -12 -24.5 -9.5t-32.5 23.5q-27 29 -41 117q-14 90 -64 553q-12 115 -27.5 220t-25.5 161.5t-18.5 102.5t-6 70 z" />
<glyph unicode="]" />
<glyph unicode="a" horiz-adv-x="698" d="M35 117q-14 39 -14 87q0 118 85 292q47 92 86 134t119 83q38 21 81 21h16q52 -4 84 -32q20 -20 53 -111t35 -97q8 -16 7 -34q0 -20 -9 -44q-15 -35 -15 -98q-1 -60 13 -146q28 -176 77 -246q25 -34 25 -65v-9q-4 -34 -39 -38q-5 -1 -9 -1q-41 0 -70 51q-32 56 -93 267 q-6 23 -23.5 18.5t-23.5 -28.5q-10 -35 -95 -84t-139 -49q-41 0 -87 39t-64 90zM123 240q-1 -11 -1 -22q0 -47 23 -71q24 -27 63 -27q12 0 26 2q58 10 98 58q74 88 106 222q14 58 13 102q0 56 -23 84q-14 18 -46 18t-63 -16q-49 -27 -94 -89.5t-70.5 -129.5t-31.5 -131z" />
<glyph unicode="b" horiz-adv-x="546" d="M23 213q-1 14 -1 31q0 57 15 152q20 124 41 147q10 14 3 34.5t5 34.5q20 24 32 140q6 59 7 107q0 45 -6 79q-9 55 -9 79q0 14 3 19q9 14 22 14q22 0 58 -38q25 -27 29.5 -54.5t4.5 -119.5q0 -96 -23 -198q-22 -102 -40 -158q-12 -40 -12 -56q0 -7 2 -10q3 -5 12 -5 q16 0 51 15q42 17 87 17q50 0 104 -22q102 -42 116 -124q3 -19 3 -39q0 -71 -40 -143q-51 -92 -147 -146q-66 -36 -118.5 -36t-92.5 36q-35 33 -68.5 108t-37.5 136zM146 170q8 -28 51 -76q25 -28 58 -28q43 0 99 49q37 33 48.5 54t11.5 56q0 55 -33 78q-35 25 -77 25 q-23 0 -47 -8q-69 -22 -103 -87q-11 -23 -10 -44q-1 -9 2 -19z" />
<glyph unicode="c" horiz-adv-x="667" d="M31 141q-9 53 -9 102q0 114 50 206q33 66 110.5 138.5t128.5 88.5q47 16 61.5 16t45.5 -12q44 -14 70 -64q21 -41 21 -88q0 -11 -1 -22q-8 -90 -51 -107q-6 -2 -11 -2q-22 0 -30 43q-4 14 -4 35q0 86 -55 86h-7q-72 -8 -153 -112q-80 -102 -80 -197q0 -100 58 -162 q49 -52 114 -53q13 0 26 2q39 6 119 41t135 70q25 16 51.5 11t26.5 -28t-64.5 -76t-140.5 -86q-96 -47 -190 -47q-70 0 -89.5 7.5t-60.5 50.5q-33 37 -47 67.5t-24 91.5z" />
<glyph unicode="d" horiz-adv-x="804" d="M32 213q-9 39 -10 81q0 45 11 93q49 164 153 213q40 19 82 18q68 0 142 -49q51 -37 63 -37q25 0 36 118t14 245t12 139q8 14 28.5 13.5t38.5 -17.5q25 -18 41 -260q12 -193 31.5 -293t75.5 -248q27 -74 32.5 -103.5t-4.5 -47.5q-16 -29 -42 -29q-14 1 -30 9 q-47 24 -47 81q0 23 -11 79t-30.5 136t-21.5 95q-10 43 -21 43q-20 -2 -100 -216q-98 -258 -225 -258q-76 0 -137 56.5t-81 138.5zM121 260q4 -27 26 -65q29 -57 60 -67q7 -2 16 -2q27 0 66 24q35 23 78 97t43 113q0 10 10 26.5t16 28t-9 31t-60 41.5q-53 27 -89 29h-6 q-33 0 -65 -20q-66 -47 -84 -168q-4 -25 -4 -44q0 -13 2 -24z" />
<glyph unicode="e" horiz-adv-x="718" d="M39 291q18 61 77.5 120.5t123 97.5t113.5 60.5t61 22.5q16 0 65 -33q35 -25 42 -41t7 -69q-2 -76 -43 -125q-33 -41 -150.5 -107.5t-156.5 -66.5t-44 -12.5t18 -51.5t67.5 -59.5t134.5 -30.5q34 -4 58 -4q21 0 35 3q30 7 110 44q94 47 120 47q5 0 7 -2q12 -8 14 -16.5 t-6 -21.5t-27.5 -29.5t-50.5 -39.5q-115 -81 -264 -81q-42 0 -86 6q-146 18 -208 128q-36 64 -36 141q0 56 19 120zM162 281q5 -6 17 -6q19 0 55 15q60 25 116 68t56 68q0 12 -13.5 16t-35 -2t-48.5 -18q-43 -23 -98 -76q-50 -48 -50 -62q0 -2 1 -3z" />
<glyph unicode="f" horiz-adv-x="614" d="M20 418q0 8 48.5 25.5t89.5 39t30 37.5q-8 12 -8 189l-2 176l70 86q69 86 102 96q16 5 34 5q37 0 84 -20q69 -30 69 -67q0 -14 24 -41q14 -16 25 -82q9 -61 9 -114v-10q-1 -58 -15 -54q-20 6 -54 96q-37 100 -62 134q-23 30 -59 30h-8q-55 -6 -79.5 -64.5t-24.5 -189.5 v-36q0 -108 11 -116q13 -8 38 13q39 34 74 34q10 0 19 -3q39 -10 39 -49q0 -5 -1 -11q-2 -31 -23.5 -46t-95.5 -44l-53 -22l-2 -105q0 -156 -35 -279.5t-88 -168.5q-23 -18 -59 -11q-33 8 -38 42q-1 5 -1 10q0 27 24 47q55 47 80 239q14 106 14 148q0 18 -3 24 q-12 14 -66 15q-49 0 -78 12t-29 35z" />
<glyph unicode="g" horiz-adv-x="659" d="M20 217q0 133 69 227.5t196 137.5q27 10 60 10q15 0 30 -2q51 -6 78 -27q37 -31 63 -31q41 0 60 -34q14 -23 14 -59q0 -14 -2 -31q-2 -18 -2 -34q0 -33 8 -62q12 -42 28.5 -110.5t16.5 -166.5q0 -154 -36 -232.5t-134 -136.5q-68 -41 -126 -53q-32 -7 -70 -7q-33 0 -70 5 q-45 6 -89 27.5t-63.5 46t-5.5 39.5q12 12 23.5 12t35.5 -15q39 -20 102 -20q14 0 29 1q84 5 146 38q84 41 115.5 106.5t31.5 192.5q0 133 -18 166q-12 25 -24.5 19.5t-65.5 -58.5q-57 -55 -125 -94t-109 -39q-70 0 -118 53t-48 131zM139 274q-3 -20 -3 -37q0 -62 40 -79 q20 -8 47 0q57 14 152 123q55 69 55 92q0 10 -10 12q-12 0 -25.5 22.5t-26 42t-44.5 23.5h-7q-31 0 -77 -33q-84 -57 -101 -166z" />
<glyph unicode="h" horiz-adv-x="806" d="M20 1018q1 70 19 88q16 16 43 15t37 -17q10 -14 10 -70.5t7 -188.5t30 -282q14 -99 14 -127v-6q-2 -31 1 -48t9.5 -22.5t20.5 2t23.5 13.5t27.5 20q14 12 21.5 18.5t17.5 11.5t16 5q23 0 46.5 -36t29.5 -81q12 -72 46 -134t71 -81q28 -16 62 -17q14 -1 29 3 q52 10 85 22.5t37 16.5q20 16 41 8q27 -10 22.5 -45t-32.5 -53q-112 -73 -202 -73q-34 0 -64 10q-112 38 -166 206q-25 78 -41 78q-31 0 -72 -80t-41 -135q0 -25 -22.5 -45.5t-49.5 -20.5q-14 0 -39 39q-18 29 -18 42.5t18 49.5q19 40 23 140q2 53 2 100q0 41 -2 78 q-4 78 -6 80q-8 12 -31 234t-23 282z" />
<glyph unicode="i" horiz-adv-x="290" d="M24 386q14 253 46 292q14 18 33.5 16t33.5 -20q12 -4 12 -73q1 -62 -9 -175q-14 -161 -14 -233q0 -35 3 -48q10 -37 30.5 -38t43.5 36q25 37 47 37q19 0 19 -39q0 -33 -14 -72q-15 -42 -38 -63q-39 -34 -76 -34q-13 0 -27 4q-50 18 -79 94q-16 40 -16 156q0 67 5 160z M55 872q-20 17 -20 41q0 29 31 68q27 35 56.5 38t45.5 -28q18 -35 10 -57.5t-49 -46.5q-31 -20 -45 -22.5t-29 7.5z" />
<glyph unicode="j" horiz-adv-x="348" d="M20 -252q0 27 27 28h2q26 0 66 -26q37 -20 49 -22t29 14q29 29 31 180v17q0 146 -25 342q-23 170 -23.5 210t17.5 58q22 26 45 26q18 0 36 -18q16 -16 20.5 -87t6.5 -164t12 -142q12 -51 15 -139q2 -26 2 -52q0 -64 -6 -133q-9 -96 -43.5 -165.5t-90.5 -69.5 q-31 0 -100.5 58t-69.5 85zM94 784q0 27 11.5 43.5t44.5 36.5q55 36 88 36q11 0 20 -4q23 -10 23 -43q0 -18 -7 -42q-10 -37 -38.5 -51.5t-102.5 -18.5q-25 -2 -32 6.5t-7 36.5z" />
<glyph unicode="k" horiz-adv-x="712" d="M25 96q-3 9 -3 18q0 22 22 40q32 24 39 116q1 19 1 35q0 62 -21 80q-25 18 -25 54v7q2 41 32 60q20 14 26 55t10 209q6 203 13.5 264t25.5 84q16 20 33 20t35 -18q16 -16 16 -98q0 -77 -14 -211q-9 -89 -9 -136t9 -52q2 -1 5 -2q17 0 61 38q119 104 159.5 157.5 t40.5 105.5q0 37 23 55q12 10 22.5 8t28.5 -16q27 -26 27 -68q0 -29 -12 -65q-30 -90 -124 -189q-68 -71 -68 -77q0 -5 34 -13q33 -8 111.5 -77.5t99.5 -110.5q31 -55 63 -269q4 -27 4 -45q0 -29 -12 -32q-18 -8 -41 9t-23 40q0 35 -36.5 128t-69.5 138q-80 111 -210 111 h-13q-72 -4 -85.5 -12.5t-13.5 -121.5q0 -98 -21.5 -165.5t-58.5 -88.5q-18 -9 -32 -9q-32 0 -49 44z" />
<glyph unicode="l" horiz-adv-x="399" d="M24 374q10 95 37 218q25 110 32 232q2 41 2 74q0 67 -9 103q-10 41 -9 59.5t15 41.5q18 29 47 35t43 -17q13 -22 12 -130v-60q-4 -162 -24 -293q-29 -184 -31 -324q0 -94 5.5 -128.5t29.5 -78.5q27 -49 42 -58t67 -9q72 0 88 -27q6 -9 6 -19q0 -19 -25 -37 q-37 -28 -59 -28q-25 0 -39 -14q-8 -7 -24 -7q-20 1 -50 11q-56 20 -65 45q-6 10 -33 60.5t-36 84.5q-8 35 -20 103q-6 37 -7 83q1 37 5 80z" />
<glyph unicode="m" horiz-adv-x="1017" d="M20 385q0 154 4.5 185.5t26.5 41.5q31 14 55 -6q14 -12 18 -36q2 -11 1 -32q0 -23 -2 -59q-2 -34 -2 -57q0 -49 8 -49h2q8 2 16 39q23 86 103 211q70 110 121 110q7 0 14 -2q39 -12 64.5 -58t38 -85t20.5 -39t29.5 25.5t58.5 60.5t74 53q36 15 61 15q23 -1 39 -13 q32 -26 61 -137l52 -174q2 -6 24.5 -93t44 -160t31.5 -85q20 -23 12 -53.5t-34 -36.5q-15 -4 -27 -4q-28 1 -46 19q-26 26 -46 106q-12 51 -19.5 90t-10.5 55t-7 29l-29 71q-16 41 -16 91q0 41 -27.5 112.5t-42.5 71.5q-12 0 -49 -40t-61 -81q-16 -25 -21.5 -70t-5.5 -157 q0 -152 -14.5 -204t-56.5 -52t-53 40q-6 23 -6 76q0 39 3 93q3 50 3 95q0 151 -36 249q-19 48 -37 48q-4 0 -8 -3q-18 -10 -60 -93t-50 -122q-10 -51 -25 -68q-19 -27 -37 -139q-13 -83 -14 -138q0 -19 2 -34q4 -37 4 -58q0 -10 -1 -16q-3 -20 -24 -39q-23 -20 -49 -17 t-33 27q-14 47 -26 203t-15 293z" />
<glyph unicode="n" horiz-adv-x="714" d="M20.5 91q2.5 42 7.5 93.5t10 148.5t7 199q0 80 14.5 102.5t51.5 4.5q37 -16 36 -47q0 -27 11 -27q14 0 57 41q41 40 80 64q35 21 74 21h10q45 -3 72 -54q14 -27 41.5 -170t50.5 -301l10 -82l63 -4q78 -6 78 -39q0 -40 -88 -57h-12q-41 -6 -59.5 -1t-53.5 35 q-39 35 -49 70t-13 108.5t-20 145.5q-4 12 -6 25.5t-4 28t-4 24.5t-4 26l-6 46.5t-7.5 36t-11.5 25.5t-16 8t-25.5 -8t-35.5 -32q-49 -57 -90.5 -180t-41.5 -223q0 -116 -67 -116q-18 0 -41 9q-12 4 -16.5 20.5t-2 58.5z" />
<glyph unicode="o" horiz-adv-x="673" d="M27 133q-6 40 -6 77q-1 84 31 154q46 100 143 140q51 21 51 37q0 6 -8 12q-4 2 -7 4q-8 4 -8 12q0 19 56 58l20 12q45 24 89 25q10 0 18 -2q54 -6 101.5 -47.5t83.5 -100.5t52 -140q11 -54 11 -108q0 -27 -3 -53q-10 -84 -38.5 -130t-106.5 -97q-126 -84 -222 -86h-4 q-94 0 -176 80q-43 41 -55 66.5t-22 86.5zM135 164q11 -98 71 -133q37 -21 76 -21q26 0 52 8q68 22 129 71.5t76 103.5q10 30 10 68q0 51 -18 117q-31 115 -76 138q-46 24 -83 24q-21 0 -40 -8q-31 -10 -8 -36q18 -25 -10.5 -52.5t-47.5 -27.5q-59 0 -101 -80 q-33 -62 -33 -132q0 -20 3 -40z" />
<glyph unicode="p" horiz-adv-x="595" d="M22 450q7 29 60 78q68 63 163 104.5t134 49.5t63 12q4 2 47 -30q66 -49 81 -150q5 -29 5 -58q0 -73 -27 -150q-38 -107 -116 -171q-37 -31 -98.5 -52.5t-114.5 -21.5q-39 0 -39 -10q-4 -43 -7 -102.5t-4 -97t-5 -82.5t-9 -72t-13.5 -51.5t-20.5 -35.5t-31 -11 q-23 0 -28 6t-3 30q4 37 13 383q4 169 4 248q0 39 -1 56q-3 49 -26 69q-29 26 -29 49q0 5 2 10zM185 202q1 -22 10.5 -34t12.5 -12t17 -2h6q36 0 95 39q63 43 102 98q25 37 32 65.5t7 85.5q-1 93 -21 107q-21 12 -45 12q-9 0 -19 -2q-34 -6 -99 -41l-84 -43l-6 -84 q-6 -72 -7 -119q-1 -28 -1 -48v-22z" />
<glyph unicode="q" horiz-adv-x="612" d="M20 152v7q0 112 66 222q41 72 109.5 140.5t140.5 70.5q29 0 68.5 -30t39.5 -50q0 -35 23 -16q8 8 18 22q16 25 43 29t45 -17q18 -18 17.5 -54t-19.5 -64q-51 -81 -51 -434v-27q0 -80 -1 -129t-3 -90t-7 -60.5t-13.5 -33t-19.5 -15.5t-27 0q-27 2 -33 11.5t-4 37.5 q3 46 3 187v77q-1 207 -5 211t-27 -20.5t-69 -64t-95 -66.5l-80 -41l-45 31q-72 51 -74 166zM130 224q-12 -41 -12 -70q0 -44 25 -64q8 -7 19 -7q32 0 89 64q75 84 134 177.5t59 103.5q0 6 -16 9t-49 6t-55 10q-27 6 -44.5 -3.5t-54.5 -50.5q-68 -74 -95 -175z" />
<glyph unicode="r" horiz-adv-x="634" d="M27 82q11 41 11 190q0 42 -1 93q-2 77 -2 125q0 50 2 70q4 40 20 52q29 18 57 -10q21 -22 21 -52q0 -9 -2 -18q-8 -39 3 -42t44 30q10 8 41 29.5t105.5 53.5t142.5 32h23q38 0 52 -5q20 -7 40 -32q30 -38 30 -64.5t-44 -24t-104 8.5q-10 1 -20 1q-51 0 -104 -25 q-94 -49 -130 -118t-56 -241q-12 -111 -26.5 -143.5t-47.5 -32.5q-34 0 -52 37q-9 20 -10 43q0 20 7 43z" />
<glyph unicode="s" horiz-adv-x="593" d="M25 -39q-10 33 6 44t53 -3q43 -16 127 -16q76 0 142.5 31.5t88.5 78.5q12 29 11.5 40t-19.5 30q-23 23 -103.5 40t-166.5 17q-68 0 -86 19q-14 14 -16 91q0 11 -1 21q0 58 13 70q12 14 39 84q18 53 83.5 131t100.5 90q30 11 65 11q18 0 36 -3q56 -8 89 -37q47 -39 69 -87 q13 -29 13 -51q0 -15 -6 -27q-16 -29 -36.5 -30t-41 17.5t-41 40t-40 41t-31.5 19.5q-39 0 -105.5 -83t-81.5 -149l-8 -45l101 -10q131 -14 181 -32.5t83 -65.5q23 -33 27.5 -54.5t0.5 -52.5q-10 -53 -64 -120.5t-112 -94.5q-66 -33 -154 -33q-32 1 -67 5q-131 16 -149 73z " />
<glyph unicode="t" horiz-adv-x="575" d="M20 438q-2 18 13.5 24.5t83.5 12.5q100 8 123.5 36t29.5 148q2 48 2 77.5t-2 41.5q-4 23 -30 49q-35 31 -38.5 66t23.5 51q31 18 46.5 13t54.5 -46q31 -29 42 -54.5t17 -78.5q3 -32 3 -62q0 -26 -2 -48q-5 -50 -10 -86.5t-1 -40.5t23.5 5t46 20.5t42.5 11.5q20 0 39 -35 t9 -58q-4 -12 -62.5 -39.5t-128.5 -50.5q-20 -6 -24.5 -31.5t-6.5 -146.5v-21q-1 -36 5 -46q8 -12 51 -27q33 -10 66.5 -15.5t53 -5.5t36 -2t23.5 -9t7 -23q0 -40 -33 -54q-25 -10 -85 -11q-18 0 -38 1q-74 4 -99.5 12.5t-51.5 34.5q-29 29 -35 54.5t-6 121.5v138l-78 6 q-59 6 -80.5 19t-28.5 48z" />
<glyph unicode="u" horiz-adv-x="751" d="M25 416q8 92 23 120.5t54 22.5l39 -4v-201q0 -133 5.5 -172t23.5 -59q28 -31 57 -30q43 0 92 65q78 104 119 311q25 131 45 156q20 23 47 25.5t39 -15.5q8 -14 10.5 -82t5.5 -142.5t29.5 -159.5t77.5 -134q33 -29 37 -41.5t-10 -32.5q-20 -31 -35 -37q-2 -1 -5 -1 q-19 0 -61 42q-46 47 -73 103q-35 74 -46.5 74t-39.5 -56q-25 -51 -89.5 -111.5t-111.5 -81.5q-24 -9 -47 -9q-47 0 -86 40q-59 60 -86 172q-18 76 -18 158q0 39 4 80z" />
<glyph unicode="v" horiz-adv-x="638" d="M21.5 548q-3.5 15 5.5 42q14 37 54 45t50 -23q8 -20 15.5 -30.5t16.5 -20.5t38.5 -61t72.5 -140q51 -106 68 -106q20 0 60 104.5t49 153.5q8 49 30 102t51 86q23 26 43 26q14 0 27 -13q19 -19 19 -43q0 -21 -15 -47q-2 -4 -4 -9q-24 -34 -24 -59q0 -33 -55.5 -187.5 t-94.5 -232.5q-29 -57 -46 -76.5t-40 -23.5q-37 -4 -53.5 17.5t-40.5 103.5q-12 41 -23.5 65.5t-17.5 28.5t-9 9t-3 17q0 14 -50.5 91t-99.5 141q-20 25 -23.5 40z" />
<glyph unicode="w" horiz-adv-x="868" d="M20 588q4 41 48 45q25 4 42 -10.5t50 -67.5q35 -55 67.5 -139t51 -138.5t24.5 -54.5q4 0 55.5 45t73.5 45q31 0 88.5 -26.5t85.5 -53.5q31 -27 45.5 -12t24.5 84q10 63 56 195.5t67 154.5q16 18 27 18q15 0 20 -36q3 -16 3 -34q0 -53 -22 -128q-8 -27 -32.5 -144.5 t-49 -212.5t-40.5 -114q-16 -16 -35 -16q-13 0 -26 8q-34 18 -60 72q-25 50 -70 84q-33 25 -59 25q-9 0 -17 -3q-20 -8 -61 -92q-37 -78 -62.5 -96.5t-56.5 9.5t-31 62q0 14 -5 37t-12 42.5t-22.5 64.5t-27.5 82q-53 166 -107 223q-33 37 -33 73v9z" />
<glyph unicode="x" horiz-adv-x="727" d="M23 -63q-1 3 -1 8q0 51 160 248q37 41 52.5 60t26.5 42.5t11 33t-14 25t-31.5 24.5t-56.5 30q-53 27 -70.5 43t-17.5 38q0 25 10 32t45 9q8 1 16 1q86 0 191 -76l37 -27l70 72q69 69 98 112q28 37 57 37h6q32 -4 35 -53q2 -27 -14.5 -56.5t-73.5 -95.5l-92 -106l121 -117 q92 -87 110 -119q8 -14 7 -31q0 -19 -11 -40q-13 -25 -36 -25q-11 0 -25 6q-41 18 -135 109q-111 107 -132 107h-4q-14 -10 -116 -130q-162 -184 -201 -184q-14 2 -22 23z" />
<glyph unicode="y" horiz-adv-x="630" d="M25 369q10 178 55 178q10 2 24 -8q16 -10 20.5 -44t4.5 -143q0 -117 5 -148.5t26.5 -53t36 -24.5t55.5 11q61 18 92 49q35 39 61.5 122t26.5 159q1 90 19 108t52 15.5t44 -25.5q8 -16 9 -53t5 -106.5t23 -145.5q28 -120 28 -229q0 -29 -2 -58q-10 -135 -63 -209 q-27 -39 -27 -53t-61 -67q-45 -39 -69 -46q-20 -6 -78 -6h-33q-96 2 -91 9q72 16 160 75q74 49 118 160q37 94 37 187q0 17 -1 34q-8 94 -16 103q-2 1 -4 1q-12 0 -60 -48q-113 -109 -211 -109q-9 0 -19 1q-106 11 -153 149q-17 53 -17 136q0 37 3 79zM88 -403q-6 2 2 4 q6 2 19 2q20 0 22 -4l-4 -5q-25 -8 -39 3z" />
<glyph unicode="z" horiz-adv-x="796" d="M20 -49q133 137 309.5 323.5t188.5 200.5q25 37 -14 35q-16 0 -62 -6q-80 -14 -123 -15q-51 0 -71.5 -15t-59.5 -15q-61 0 -71 43q-1 6 -1 12q0 36 52 57q23 8 49 13q286 34 354 59q59 20 77 20.5t40 -24.5q16 -18 16 -44q0 -36 -32 -86q-54 -87 -230 -265 q-162 -166 -162 -193q0 -3 1 -4q5 -5 29 -5q40 0 132 14q117 18 155 17q10 0 15 -1q27 -6 58.5 5t47 17t44.5 -16q20 -20 12 -36.5t-55 -49.5t-105 -33q-41 0 -252.5 -34t-261.5 -48q-25 -8 -44 10.5t-28.5 40t-7.5 23.5z" />
<glyph unicode="{" />
<glyph unicode="|" />
<glyph unicode="}" />
<glyph unicode="~" horiz-adv-x="997" d="M20 328q0 14 21 57q23 41 60.5 67.5t113.5 51.5q53 18 81 19t85 -11q68 -14 166 -62.5t125 -48.5q43 0 98 31t86 70q33 47 78 47q106 0 -49 -168q-68 -72 -92.5 -87t-87.5 -24q-74 -8 -145 10.5t-124 59.5q-33 27 -100 45q-61 18 -107.5 3t-109.5 -73q-37 -33 -48.5 -37 t-27.5 13q-23 23 -23 37z" />
<glyph unicode="&#xa2;" />
<glyph unicode="&#xa3;" horiz-adv-x="790" d="M20 -16q0 94 21.5 149t73.5 92q39 29 54 53.5t32 81.5q18 70 16 92.5t-27 22.5q-16 0 -32.5 14.5t-7 34t52.5 27.5q29 4 45 61.5t33.5 149.5t40.5 143q25 59 88 117.5t131 83.5q123 49 175 11t54 -173q2 -59 -4 -82.5t-23 -40.5q-63 -57 -75 74q-2 8 -2 18 q-2 61 -9.5 73.5t-40.5 14.5q-45 4 -98 -29.5t-82 -84.5q-25 -41 -43 -127t-18 -150v-51l61 10q41 6 73 20.5t43 23t24.5 7t33.5 -19.5q104 -94 -118 -137q-14 -2 -27 -4l-127 -21l-10 -53q-12 -51 -29 -78q-10 -20 -5 -52t19 -32q12 0 80 -53q51 -39 75 -45t103 -2 q55 4 92 12t45.5 15.5t21.5 10.5t22 -1q18 -8 18 -26.5t-17.5 -43t-45.5 -45.5q-39 -27 -69 -34t-103 -7q-80 0 -109 7t-82 44q-76 51 -85 51t-46 -77q-35 -72 -90 -118t-80 -26q-23 18 -23 99z" />
<glyph unicode="&#xa7;" />
<glyph unicode="&#xab;" horiz-adv-x="776" d="M22.5 313.5q-8.5 18.5 7 40t58.5 52.5q57 41 128 118.5t119 132t62 54.5t30.5 -20.5t16.5 -39t-74.5 -107.5t-136.5 -145q-43 -37 -50 -62.5t18 -51.5q29 -33 92 -161t63 -153q0 -37 -16 -53q-18 -18 -45 -18t-27 18q0 16 -43 103.5t-86 158.5q-18 29 -47 56.5t-45 43 t-24.5 34zM379 334q-6 31 15.5 61.5t119.5 132.5q145 152 161.5 152t35.5 -21q18 -23 -3.5 -59.5t-101.5 -118.5q-88 -92 -88 -122.5t94 -104.5q102 -80 130 -131t-3 -107q-16 -31 -38.5 -26.5t-36.5 43.5q-10 27 -54.5 66.5t-92.5 73.5t-90 79t-48 82z" />
<glyph unicode="&#xad;" horiz-adv-x="483" d="M23 324q6 12 26 26q25 20 211 21q117 0 154 -4.5t41 -18.5q23 -61 -33.5 -86.5t-185.5 -15.5q-238 18 -213 78z" />
<glyph unicode="&#xbb;" horiz-adv-x="770" d="M25 45q-31 31 137 182q61 57 72.5 76t1.5 49q-10 33 -31 74t-43 115q-20 59 -21 78.5t13 42.5q31 45 59.5 30.5t42.5 -82.5q8 -33 54 -141.5t52 -155.5q2 -20 3.5 -29.5t-3 -20.5t-11.5 -16t-22.5 -17.5t-34 -24.5t-51 -38t-67.5 -56q-117 -100 -151 -66zM350 -14 q-27 27 32.5 110.5t132.5 166.5t73 97q0 18 -29 62q-51 76 -73.5 145.5t-4.5 89.5q27 27 72 -22t77 -108.5t32 -65.5t44 -53.5t44 -63.5q0 -23 -32 -56.5t-50 -33.5q-14 0 -88 -74t-147 -140.5t-83 -53.5z" />
<glyph unicode="&#xbf;" />
<glyph unicode="&#xc0;" />
<glyph unicode="&#xc1;" />
<glyph unicode="&#xc2;" />
<glyph unicode="&#xc4;" />
<glyph unicode="&#xc7;" />
<glyph unicode="&#xc8;" />
<glyph unicode="&#xc9;" />
<glyph unicode="&#xca;" />
<glyph unicode="&#xcb;" />
<glyph unicode="&#xce;" />
<glyph unicode="&#xcf;" />
<glyph unicode="&#xd1;" />
<glyph unicode="&#xd3;" />
<glyph unicode="&#xd4;" />
<glyph unicode="&#xd6;" />
<glyph unicode="&#xd9;" />
<glyph unicode="&#xda;" />
<glyph unicode="&#xdb;" />
<glyph unicode="&#xdc;" />
<glyph unicode="&#xdf;" />
<glyph unicode="&#xe0;" />
<glyph unicode="&#xe1;" />
<glyph unicode="&#xe2;" />
<glyph unicode="&#xe4;" />
<glyph unicode="&#xe7;" />
<glyph unicode="&#xe8;" />
<glyph unicode="&#xe9;" />
<glyph unicode="&#xea;" />
<glyph unicode="&#xeb;" />
<glyph unicode="&#xee;" />
<glyph unicode="&#xef;" />
<glyph unicode="&#xf3;" />
<glyph unicode="&#xf4;" />
<glyph unicode="&#xf6;" />
<glyph unicode="&#xf9;" />
<glyph unicode="&#xfa;" />
<glyph unicode="&#xfb;" />
<glyph unicode="&#xfc;" />
<glyph unicode="&#x2000;" horiz-adv-x="682" />
<glyph unicode="&#x2001;" horiz-adv-x="1365" />
<glyph unicode="&#x2002;" horiz-adv-x="682" />
<glyph unicode="&#x2003;" horiz-adv-x="1365" />
<glyph unicode="&#x2004;" horiz-adv-x="455" />
<glyph unicode="&#x2005;" horiz-adv-x="341" />
<glyph unicode="&#x2006;" horiz-adv-x="227" />
<glyph unicode="&#x2007;" horiz-adv-x="227" />
<glyph unicode="&#x2008;" horiz-adv-x="170" />
<glyph unicode="&#x2009;" horiz-adv-x="273" />
<glyph unicode="&#x200a;" horiz-adv-x="75" />
<glyph unicode="&#x2010;" horiz-adv-x="483" d="M23 324q6 12 26 26q25 20 211 21q117 0 154 -4.5t41 -18.5q23 -61 -33.5 -86.5t-185.5 -15.5q-238 18 -213 78z" />
<glyph unicode="&#x2011;" horiz-adv-x="483" d="M23 324q6 12 26 26q25 20 211 21q117 0 154 -4.5t41 -18.5q23 -61 -33.5 -86.5t-185.5 -15.5q-238 18 -213 78z" />
<glyph unicode="&#x2012;" horiz-adv-x="483" d="M23 324q6 12 26 26q25 20 211 21q117 0 154 -4.5t41 -18.5q23 -61 -33.5 -86.5t-185.5 -15.5q-238 18 -213 78z" />
<glyph unicode="&#x2013;" horiz-adv-x="1065" d="M26 324q13 12 60 26q58 20 490 21q271 0 357 -4.5t96 -18.5q53 -61 -78 -86.5t-431 -15.5q-553 18 -494 78z" />
<glyph unicode="&#x2014;" horiz-adv-x="2089" d="M31 324q28 12 121 26q116 20 980 21q543 0 715 -4.5t190 -18.5q107 -61 -155.5 -86.5t-861.5 -15.5q-1105 18 -989 78z" />
<glyph unicode="&#x201c;" horiz-adv-x="585" d="M21.5 849q5.5 60 29 118.5t64.5 100.5t80 38q27 -4 32.5 -12.5t5.5 -34.5q-4 -43 -51 -94q-31 -33 -40 -54.5t-9 -72.5q-2 -111 -35 -113q-18 0 -47 29q-35 35 -29.5 95zM346 881q0 47 27.5 98t72.5 84q35 27 49.5 29t43.5 -15q31 -16 24.5 -41.5t-55.5 -83.5 q-59 -70 -51 -92q8 -23 13 -55.5t4 -56t-7 -23.5q-14 0 -37 -8t-53.5 51t-30.5 113z" />
<glyph unicode="&#x201e;" horiz-adv-x="581" d="M20.5 -278.5q-2.5 10.5 7 28t18.5 39t16.5 62t0.5 90.5q-6 57 -1.5 79.5t20.5 40.5q18 23 26.5 22t34.5 -26q25 -23 30 -44t1 -93q-6 -104 -41 -164q-29 -53 -49.5 -64t-46.5 7q-14 12 -16.5 22.5zM385 43q-2 27 16 45q20 23 47 15.5t48 -37.5q70 -102 65.5 -193.5 t-80.5 -163.5q-41 -37 -65 -20q-27 16 -28 45.5t26 54.5q29 27 28.5 74t-28.5 102q-27 51 -29 78z" />
<glyph unicode="&#x2022;" />
<glyph unicode="&#x202f;" horiz-adv-x="273" />
<glyph unicode="&#x205f;" horiz-adv-x="341" />
<glyph unicode="&#x20ac;" horiz-adv-x="1163" d="M25 514q6 16 63 45t105 39q27 6 66.5 52t92.5 112.5t92 101.5q98 84 291 201t250 117q115 0 148 -133q27 -104 -11 -183q-27 -57 -65 -24q-23 16 -15 96q6 53 2 69.5t-28 32.5q-35 20 -87 9t-143 -62l-127 -69q-29 -14 -94 -72t-117.5 -112t-46.5 -60q18 -20 263 67 q94 35 120.5 38t34.5 -15q12 -33 -3 -67.5t-46 -45.5q-12 -4 -42 -16t-51.5 -19.5t-87 -24t-161.5 -36.5t-114.5 -29.5t-18.5 -36.5q0 -25 20 -24q33 2 156 55q94 43 111 43q27 0 39 -28.5t4.5 -59.5t-33.5 -39q-16 -6 -44 -19.5t-63.5 -24.5t-87.5 -21q-80 -16 -98 -21 q-14 -8 -9 -34.5t28.5 -64.5t52.5 -65q74 -66 155.5 -44t233.5 147q186 156 237 135q57 -23 -69 -123l-168 -141q-88 -76 -121 -94q-37 -18 -110.5 -26.5t-122.5 -0.5q-59 10 -125 85t-88 157q-10 37 -46 45q-43 10 -40.5 36.5t47.5 45.5q68 29 53 57q-20 33 -107 12 q-49 -12 -68.5 -3t-6.5 40z" />
<glyph unicode="&#x25fc;" horiz-adv-x="645" d="M0 0v645h645v-645h-645z" />
</font>
</defs>
</svg>
